<?xml version="1.0" encoding="UTF-8" standalone="no"?>
<!-- Created with Inkscape (http://www.inkscape.org/) -->

<svg
   xmlns:dc="http://purl.org/dc/elements/1.1/"
   xmlns:cc="http://creativecommons.org/ns#"
   xmlns:rdf="http://www.w3.org/1999/02/22-rdf-syntax-ns#"
   xmlns:svg="http://www.w3.org/2000/svg"
   xmlns="http://www.w3.org/2000/svg"
   xmlns:sodipodi="http://sodipodi.sourceforge.net/DTD/sodipodi-0.dtd"
   xmlns:inkscape="http://www.inkscape.org/namespaces/inkscape"
   width="210mm"
   height="297mm"
   id="svg2"
   version="1.1"
   inkscape:version="0.48.2 r9819"
   sodipodi:docname="manual.svg">
  <sodipodi:namedview
     id="base"
     pagecolor="#ffffff"
     bordercolor="#666666"
     borderopacity="1.0"
     inkscape:pageopacity="0.0"
     inkscape:pageshadow="2"
     inkscape:zoom="1.4"
     inkscape:cx="286.01929"
     inkscape:cy="927.14335"
     inkscape:document-units="px"
     inkscape:current-layer="g5176"
     showgrid="false"
     inkscape:window-width="1676"
     inkscape:window-height="1006"
     inkscape:window-x="4"
     inkscape:window-y="0"
     inkscape:window-maximized="1" />
  <defs
     id="defs4" />
  <metadata
     id="metadata7">
    <rdf:RDF>
      <cc:Work
         rdf:about="">
        <dc:format>image/svg+xml</dc:format>
        <dc:type
           rdf:resource="http://purl.org/dc/dcmitype/StillImage" />
        <dc:title></dc:title>
      </cc:Work>
    </rdf:RDF>
  </metadata>
  <g
     id="layer1"
     inkscape:groupmode="layer"
     inkscape:label="Ebene 1">
    <g
       id="g3138"
       transform="translate(-91.923888,-419.21331)"
       inkscape:export-filename="/Users/johannesunger/workspace/vstforx/Documents/manual/graphics/curvetypes.png"
       inkscape:export-xdpi="355.79678"
       inkscape:export-ydpi="355.79678">
      <path
         inkscape:connector-curvature="0"
         style="fill:#ffff00;stroke:#007c00;stroke-width:2;stroke-miterlimit:4;stroke-opacity:1;stroke-dasharray:none;stroke-dashoffset:0"
         d="m 132.94997,513.12903 68.75,0 m -68.75,0 0,-61.07143 m 0,61.07143 c 3.27381,-2.90816 6.54762,-5.81632 9.82143,-8.72449 3.27381,-2.90816 6.54762,-5.81632 9.82143,-8.72449 3.27381,-2.90816 6.54762,-5.81632 9.82143,-8.72449 3.27381,-2.90816 6.54762,-5.81632 9.82143,-8.72449 3.27381,-2.90816 6.54762,-5.81632 9.82143,-8.72449 3.27381,-2.90816 6.54762,-5.81632 9.82142,-8.72449 3.27381,-2.90816 6.54762,-5.81632 9.82143,-8.72449"
         title="x"
         id="path4251" />
      <path
         inkscape:connector-curvature="0"
         id="path4272"
         title="x*x"
         d="m 224.85995,512.59333 68.75,0 m -68.75,0 0,-61.07143 m 0,61.07143 c 3.27381,-4.1e-4 6.54762,-0.41586 9.82143,-1.24635 3.27381,-0.83049 6.54761,-2.07768 9.82142,-3.73907 3.27381,-1.66139 6.54762,-3.73948 9.82143,-6.23178 3.27381,-2.49229 6.54762,-5.40129 9.82143,-8.72449 3.27381,-3.3232 6.54762,-7.0631 9.82143,-11.2172 3.27381,-4.1541 6.54762,-8.7249 9.82143,-13.70991 3.27381,-4.98501 6.54762,-10.38672 9.82143,-16.20263"
         style="fill:none;stroke:#007c00;stroke-width:2;stroke-miterlimit:4;stroke-opacity:1;stroke-dasharray:none;stroke-dashoffset:0" />
      <path
         inkscape:connector-curvature="0"
         id="path4313"
         title="x*x*x"
         d="m 313.28037,512.88919 68.75,0 m -68.75,0 0,-61.07143 m 0,61.07143 c 3.27381,0 6.54762,-1.8e-4 9.82143,-0.17805 3.27381,-0.17788 6.54762,-0.53451 9.82143,-1.24636 3.27381,-0.71185 6.54762,-1.78104 9.82143,-3.38297 3.27381,-1.60192 6.54762,-3.73978 9.82143,-6.58788 3.27381,-2.8481 6.54762,-6.41072 9.82143,-10.8611 3.27381,-4.45038 6.54762,-9.79386 9.82143,-16.20262 3.27381,-6.40876 6.54762,-13.88921 9.82142,-22.61245"
         style="fill:none;stroke:#007c00;stroke-width:2;stroke-miterlimit:4;stroke-opacity:1;stroke-dasharray:none;stroke-dashoffset:0" />
      <path
         inkscape:connector-curvature="0"
         style="fill:none;stroke:#007c00;stroke-width:2;stroke-miterlimit:4;stroke-opacity:1;stroke-dasharray:none;stroke-dashoffset:0"
         d="m 133.15653,606.2019 68.75,0 m -68.75,0 0,-61.07143 m 0,61.07143 c 3.27381,0 6.54762,0.008 9.82143,-0.0254 3.27381,-0.0339 6.54762,-0.11043 9.82143,-0.38154 3.27381,-0.27111 6.54762,-0.73809 9.82143,-1.65333 3.27381,-0.91523 6.54762,-2.28156 9.82143,-4.45127 3.27381,-2.16971 6.54762,-5.14779 9.82143,-9.38582 3.27381,-4.23803 6.54762,-9.74375 9.82143,-17.06744 3.27381,-7.32369 6.54761,-16.47643 9.82142,-28.10659"
         title="x*x*x*x"
         id="path4334" />
      <path
         inkscape:connector-curvature="0"
         id="path4355"
         title="x*x*x*x*x"
         d="m 226.62772,607.25543 68.75,0 m -68.75,0 0,-61.07143 m 0,61.07143 c 3.27381,0 6.54762,0.002 9.82143,-0.004 3.27381,-0.006 6.54762,-0.0158 9.82143,-0.11265 3.27381,-0.0968 6.54762,-0.27648 9.82143,-0.7667 3.27381,-0.49023 6.54762,-1.28832 9.82143,-2.83792 3.27381,-1.5496 6.54762,-3.8508 9.82143,-7.63438 3.27381,-3.78358 6.54762,-9.05414 9.82143,-16.90029 3.27381,-7.84616 6.54761,-18.2792 9.82142,-32.81586"
         style="fill:none;stroke:#007c00;stroke-width:2;stroke-miterlimit:4;stroke-opacity:1;stroke-dasharray:none;stroke-dashoffset:0" />
      <path
         inkscape:connector-curvature="0"
         style="fill:none;stroke:#007c00;stroke-width:2;stroke-miterlimit:4;stroke-opacity:1;stroke-dasharray:none;stroke-dashoffset:0"
         d="m 313.48956,607.96972 68.75,0 m -68.75,0 0,-61.07143 m 0,61.01179 c 3.27381,-0.0197 6.54762,-0.0479 9.82143,-0.1009 3.27381,-0.053 6.54762,-0.12903 9.82143,-0.2716 3.2738,-0.14256 6.54761,-0.34733 9.82142,-0.73109 3.27381,-0.38376 6.54762,-0.93496 9.82143,-1.96796 3.27381,-1.033 6.54762,-2.51672 9.82143,-5.29735 3.27381,-2.78063 6.54762,-6.7745 9.82143,-14.25941 3.27381,-7.4849 6.54762,-18.2356 9.82143,-38.38348"
         title="pow(2., 10. * (x -1.0))"
         id="path4687" />
      <text
         transform="scale(0.95652077,1.0454556)"
         sodipodi:linespacing="125%"
         id="text2996"
         y="496.86276"
         x="147.85628"
         style="font-size:6.4187746px;font-style:normal;font-weight:normal;line-height:125%;letter-spacing:0px;word-spacing:0px;fill:#000000;fill-opacity:1;stroke:none;font-family:Sans"
         xml:space="preserve"><tspan
           style="font-style:normal;font-variant:normal;font-weight:normal;font-stretch:normal;font-family:Courier New;-inkscape-font-specification:Courier New"
           y="496.86276"
           x="147.85628"
           id="tspan2998"
           sodipodi:role="line">Type1: Linear</tspan></text>
      <text
         transform="scale(0.95652077,1.0454556)"
         sodipodi:linespacing="125%"
         id="text2996-6"
         y="496.65567"
         x="236.31487"
         style="font-size:6.4187746px;font-style:normal;font-weight:normal;line-height:125%;letter-spacing:0px;word-spacing:0px;fill:#000000;fill-opacity:1;stroke:none;font-family:Sans"
         xml:space="preserve"><tspan
           style="font-style:normal;font-variant:normal;font-weight:normal;font-stretch:normal;font-family:Courier New;-inkscape-font-specification:Courier New"
           y="496.65567"
           x="236.31487"
           id="tspan2998-7"
           sodipodi:role="line">Type2: Quadratisch</tspan></text>
      <text
         transform="scale(0.95652077,1.0454556)"
         sodipodi:linespacing="125%"
         id="text2996-6-4"
         y="586.0321"
         x="135.57719"
         style="font-size:6.4187746px;font-style:normal;font-weight:normal;line-height:125%;letter-spacing:0px;word-spacing:0px;fill:#000000;fill-opacity:1;stroke:none;font-family:Sans"
         xml:space="preserve"><tspan
           style="font-style:normal;font-variant:normal;font-weight:normal;font-stretch:normal;font-family:Courier New;-inkscape-font-specification:Courier New"
           y="586.0321"
           x="135.57719"
           id="tspan2998-7-3"
           sodipodi:role="line">Type4: Biquadratisch</tspan></text>
      <text
         transform="scale(0.95652077,1.0454556)"
         sodipodi:linespacing="125%"
         id="text2996-6-4-7"
         y="496.17255"
         x="335.81387"
         style="font-size:6.4187746px;font-style:normal;font-weight:normal;line-height:125%;letter-spacing:0px;word-spacing:0px;fill:#000000;fill-opacity:1;stroke:none;font-family:Sans"
         xml:space="preserve"><tspan
           style="font-style:normal;font-variant:normal;font-weight:normal;font-stretch:normal;font-family:Courier New;-inkscape-font-specification:Courier New"
           y="496.17255"
           x="335.81387"
           id="tspan2998-7-3-7"
           sodipodi:role="line">Type3: Kubisch</tspan></text>
      <text
         transform="scale(0.95652077,1.0454556)"
         sodipodi:linespacing="125%"
         id="text2996-6-4-7-5"
         y="586.51526"
         x="240.43312"
         style="font-size:6.4187746px;font-style:normal;font-weight:normal;line-height:125%;letter-spacing:0px;word-spacing:0px;fill:#000000;fill-opacity:1;stroke:none;font-family:Sans"
         xml:space="preserve"><tspan
           style="font-style:normal;font-variant:normal;font-weight:normal;font-stretch:normal;font-family:Courier New;-inkscape-font-specification:Courier New"
           y="586.51526"
           x="240.43312"
           id="tspan2998-7-3-7-8"
           sodipodi:role="line">Type5: Quintisch</tspan></text>
      <text
         transform="scale(0.95652077,1.0454556)"
         sodipodi:linespacing="125%"
         id="text2996-6-4-7-5-4"
         y="587.23987"
         x="329.25449"
         style="font-size:6.4187746px;font-style:normal;font-weight:normal;line-height:125%;letter-spacing:0px;word-spacing:0px;fill:#000000;fill-opacity:1;stroke:none;font-family:Sans"
         xml:space="preserve"><tspan
           style="font-style:normal;font-variant:normal;font-weight:normal;font-stretch:normal;font-family:Courier New;-inkscape-font-specification:Courier New"
           y="587.23987"
           x="329.25449"
           id="tspan2998-7-3-7-8-7"
           sodipodi:role="line">Type6: Exponential</tspan></text>
    </g>
    <g
       id="g5176"
       inkscape:export-filename="/Users/johannesunger/workspace/vstforx/Documents/manual/graphics/adsr.png"
       inkscape:export-xdpi="286.25208"
       inkscape:export-ydpi="286.25208"
       transform="translate(2.1428571,-2.8571429)">
      <path
         sodipodi:nodetypes="ccccc"
         inkscape:connector-curvature="0"
         id="path3928"
         d="m 324.76404,194.74268 62.62945,-139.906136 37.88073,63.134536 88.89342,-1.01015 81.90902,76.71033"
         style="fill:none;stroke:#007d00;stroke-width:2;stroke-linecap:butt;stroke-linejoin:miter;stroke-miterlimit:4;stroke-opacity:1;stroke-dasharray:none" />
      <g
         transform="translate(0.25253814,3.4309291)"
         id="g3934">
        <path
           style="fill:none;stroke:#000000;stroke-width:1px;stroke-linecap:butt;stroke-linejoin:miter;stroke-opacity:1"
           d="m 323.75389,191.71221 0.50508,-160.61425 -5.55584,10.606602"
           id="path3930"
           inkscape:connector-curvature="0" />
        <path
           style="fill:none;stroke:#000000;stroke-width:1px;stroke-linecap:butt;stroke-linejoin:miter;stroke-opacity:1"
           d="m 324.10714,31.112182 6.42857,10.178571"
           id="path3932"
           inkscape:connector-curvature="0"
           sodipodi:nodetypes="cc" />
      </g>
      <g
         transform="matrix(0,1,-1,0,657.75299,-130.73896)"
         id="g3938">
        <path
           sodipodi:nodetypes="ccc"
           inkscape:connector-curvature="0"
           id="path3940"
           d="M 325.7742,334.14372 324.25897,31.09796 318.70313,41.704562"
           style="fill:none;stroke:#000000;stroke-width:1px;stroke-linecap:butt;stroke-linejoin:miter;stroke-opacity:1" />
        <path
           sodipodi:nodetypes="cc"
           inkscape:connector-curvature="0"
           id="path3942"
           d="m 324.10714,31.112182 6.42857,10.178571"
           style="fill:none;stroke:#000000;stroke-width:1px;stroke-linecap:butt;stroke-linejoin:miter;stroke-opacity:1" />
      </g>
      <text
         sodipodi:linespacing="125%"
         id="text3944"
         y="57.559914"
         x="327.67218"
         style="font-size:9.71095181px;font-style:normal;font-weight:normal;line-height:125%;letter-spacing:0px;word-spacing:0px;fill:#000000;fill-opacity:1;stroke:none;font-family:Sans"
         xml:space="preserve"><tspan
           y="57.559914"
           x="327.67218"
           id="tspan3946"
           sodipodi:role="line">1.0</tspan></text>
      <text
         sodipodi:linespacing="125%"
         id="text3948"
         y="211.91527"
         x="625.88885"
         style="font-size:19.10592461px;font-style:normal;font-weight:normal;line-height:125%;letter-spacing:0px;word-spacing:0px;fill:#000000;fill-opacity:1;stroke:none;font-family:Sans"
         xml:space="preserve"><tspan
           y="211.91527"
           x="625.88885"
           id="tspan3950"
           sodipodi:role="line">t</tspan></text>
      <path
         transform="matrix(0.89995407,0,0,0.82495788,39.168242,12.098705)"
         d="m 389.91888,51.806087 c 0,1.673676 -1.24372,3.030458 -2.77792,3.030458 -1.5342,0 -2.77792,-1.356782 -2.77792,-3.030458 0,-1.673675 1.24372,-3.030457 2.77792,-3.030457 1.5342,0 2.77792,1.356782 2.77792,3.030457 z"
         sodipodi:ry="3.0304577"
         sodipodi:rx="2.7779195"
         sodipodi:cy="51.806087"
         sodipodi:cx="387.14096"
         id="path3952"
         style="fill:#ff0000;fill-opacity:1;stroke:none"
         sodipodi:type="arc" />
      <path
         sodipodi:type="arc"
         style="fill:#ff0000;fill-opacity:1;stroke:none"
         id="path3954"
         sodipodi:cx="387.14096"
         sodipodi:cy="51.806087"
         sodipodi:rx="2.7779195"
         sodipodi:ry="3.0304577"
         d="m 389.91888,51.806087 c 0,1.673676 -1.24372,3.030458 -2.77792,3.030458 -1.5342,0 -2.77792,-1.356782 -2.77792,-3.030458 0,-1.673675 1.24372,-3.030457 2.77792,-3.030457 1.5342,0 2.77792,1.356782 2.77792,3.030457 z"
         transform="matrix(0.89995407,0,0,0.82495788,77.025385,74.777276)" />
      <path
         transform="matrix(0.89995407,0,0,0.82495788,165.77539,74.06299)"
         d="m 389.91888,51.806087 c 0,1.673676 -1.24372,3.030458 -2.77792,3.030458 -1.5342,0 -2.77792,-1.356782 -2.77792,-3.030458 0,-1.673675 1.24372,-3.030457 2.77792,-3.030457 1.5342,0 2.77792,1.356782 2.77792,3.030457 z"
         sodipodi:ry="3.0304577"
         sodipodi:rx="2.7779195"
         sodipodi:cy="51.806087"
         sodipodi:cx="387.14096"
         id="path3956"
         style="fill:#ff0000;fill-opacity:1;stroke:none"
         sodipodi:type="arc" />
      <text
         sodipodi:linespacing="125%"
         id="text3958"
         y="129.50504"
         x="342.5"
         style="font-size:12px;font-style:normal;font-weight:normal;line-height:125%;letter-spacing:0px;word-spacing:0px;fill:#000000;fill-opacity:1;stroke:none;font-family:Sans"
         xml:space="preserve"><tspan
           y="129.50504"
           x="342.5"
           id="tspan3960"
           sodipodi:role="line">a</tspan></text>
      <text
         xml:space="preserve"
         style="font-size:12px;font-style:normal;font-weight:normal;line-height:125%;letter-spacing:0px;word-spacing:0px;fill:#000000;fill-opacity:1;stroke:none;font-family:Sans"
         x="410.71426"
         y="88.076477"
         id="text3962"
         sodipodi:linespacing="125%"><tspan
           sodipodi:role="line"
           id="tspan3964"
           x="410.71426"
           y="88.076477">d</tspan></text>
      <text
         sodipodi:linespacing="125%"
         id="text3966"
         y="113.79076"
         x="464.64282"
         style="font-size:12px;font-style:normal;font-weight:normal;line-height:125%;letter-spacing:0px;word-spacing:0px;fill:#000000;fill-opacity:1;stroke:none;font-family:Sans"
         xml:space="preserve"><tspan
           y="113.79076"
           x="464.64282"
           id="tspan3968"
           sodipodi:role="line">s</tspan></text>
      <text
         xml:space="preserve"
         style="font-size:12px;font-style:normal;font-weight:normal;line-height:125%;letter-spacing:0px;word-spacing:0px;fill:#000000;fill-opacity:1;stroke:none;font-family:Sans"
         x="562.14282"
         y="156.64789"
         id="text3970"
         sodipodi:linespacing="125%"><tspan
           sodipodi:role="line"
           id="tspan3972"
           x="562.14282"
           y="156.64789">r</tspan></text>
    </g>
  </g>
</svg>
